<mxfile host="65bd71144e">
    <diagram id="F7ulRKgjgNDQQFNuWUBc" name="Page-1">
        <mxGraphModel dx="1186" dy="971" grid="1" gridSize="10" guides="1" tooltips="1" connect="1" arrows="1" fold="1" page="1" pageScale="1" pageWidth="850" pageHeight="1100" math="0" shadow="0">
            <root>
                <mxCell id="0"/>
                <mxCell id="1" parent="0"/>
                <mxCell id="5" style="edgeStyle=none;html=1;exitX=0.5;exitY=1;exitDx=0;exitDy=0;entryX=0.5;entryY=0;entryDx=0;entryDy=0;" parent="1" source="2" edge="1">
                    <mxGeometry relative="1" as="geometry">
                        <mxPoint x="320" y="200.0000000000001" as="targetPoint"/>
                        <Array as="points">
                            <mxPoint x="425" y="170"/>
                            <mxPoint x="320" y="170"/>
                        </Array>
                    </mxGeometry>
                </mxCell>
                <mxCell id="6" style="edgeStyle=none;html=1;exitX=0.5;exitY=1;exitDx=0;exitDy=0;entryX=0.5;entryY=0;entryDx=0;entryDy=0;" parent="1" source="2" edge="1">
                    <mxGeometry relative="1" as="geometry">
                        <mxPoint x="530" y="200.0000000000001" as="targetPoint"/>
                        <Array as="points">
                            <mxPoint x="425" y="170"/>
                            <mxPoint x="530" y="170"/>
                        </Array>
                    </mxGeometry>
                </mxCell>
                <mxCell id="2" value="&lt;i&gt;&lt;font face=&quot;Georgia&quot;&gt;SVM&lt;sub&gt;AB&lt;/sub&gt;&lt;br&gt;{A vs B}&lt;br&gt;&lt;/font&gt;&lt;/i&gt;" style="rounded=1;whiteSpace=wrap;html=1;" parent="1" vertex="1">
                    <mxGeometry x="365" y="80" width="120" height="60" as="geometry"/>
                </mxCell>
                <mxCell id="20" style="edgeStyle=none;html=1;exitX=0.5;exitY=1;exitDx=0;exitDy=0;entryX=0.5;entryY=0;entryDx=0;entryDy=0;" parent="1" edge="1">
                    <mxGeometry relative="1" as="geometry">
                        <mxPoint x="530" y="260" as="sourcePoint"/>
                        <mxPoint x="600" y="300" as="targetPoint"/>
                        <Array as="points">
                            <mxPoint x="530" y="280"/>
                            <mxPoint x="600" y="280"/>
                        </Array>
                    </mxGeometry>
                </mxCell>
                <mxCell id="18" style="edgeStyle=none;html=1;exitX=0.5;exitY=1;exitDx=0;exitDy=0;entryX=0.5;entryY=0;entryDx=0;entryDy=0;" parent="1" edge="1" target="24">
                    <mxGeometry relative="1" as="geometry">
                        <mxPoint x="600" y="360" as="sourcePoint"/>
                        <mxPoint x="670" y="390" as="targetPoint"/>
                        <Array as="points">
                            <mxPoint x="600" y="370"/>
                            <mxPoint x="670" y="370"/>
                        </Array>
                    </mxGeometry>
                </mxCell>
                <mxCell id="30" style="edgeStyle=none;html=1;exitX=0.5;exitY=1;exitDx=0;exitDy=0;entryX=0.5;entryY=0;entryDx=0;entryDy=0;" edge="1" parent="1" source="22" target="29">
                    <mxGeometry relative="1" as="geometry">
                        <Array as="points">
                            <mxPoint x="320" y="280"/>
                            <mxPoint x="250" y="280"/>
                        </Array>
                    </mxGeometry>
                </mxCell>
                <mxCell id="31" style="edgeStyle=none;html=1;exitX=0.5;exitY=1;exitDx=0;exitDy=0;entryX=0.5;entryY=0;entryDx=0;entryDy=0;" edge="1" parent="1" source="22" target="28">
                    <mxGeometry relative="1" as="geometry">
                        <Array as="points">
                            <mxPoint x="320" y="280"/>
                            <mxPoint x="440" y="280"/>
                        </Array>
                    </mxGeometry>
                </mxCell>
                <mxCell id="22" value="&lt;font face=&quot;Georgia&quot;&gt;&lt;i&gt;SVM&lt;sub&gt;A&lt;span style=&quot;font-size: 8px&quot;&gt;0&lt;br&gt;&lt;/span&gt;&lt;/sub&gt;&lt;/i&gt;&lt;/font&gt;&lt;font face=&quot;Georgia&quot;&gt;&lt;i&gt;{A&lt;sub&gt;1&lt;/sub&gt;vs A&lt;sub&gt;0&lt;/sub&gt;}&lt;/i&gt;&lt;br&gt;&lt;/font&gt;" style="rounded=1;whiteSpace=wrap;html=1;" parent="1" vertex="1">
                    <mxGeometry x="260" y="200" width="120" height="60" as="geometry"/>
                </mxCell>
                <mxCell id="24" value="&lt;font face=&quot;Georgia&quot;&gt;&lt;i&gt;SVM&lt;sub&gt;B&lt;font style=&quot;font-size: 8px&quot;&gt;m&lt;/font&gt;&lt;span style=&quot;font-size: 8px&quot;&gt;-1&lt;br&gt;&lt;/span&gt;&lt;/sub&gt;&lt;/i&gt;&lt;/font&gt;&lt;font face=&quot;Georgia&quot;&gt;&lt;i&gt;{B&lt;sub&gt;m-1&amp;nbsp;&lt;/sub&gt;vs B&lt;sub&gt;m&lt;/sub&gt;}&lt;/i&gt;&lt;/font&gt;&lt;i&gt;&lt;font face=&quot;Georgia&quot;&gt;&lt;br&gt;&lt;/font&gt;&lt;/i&gt;" style="rounded=1;whiteSpace=wrap;html=1;" parent="1" vertex="1">
                    <mxGeometry x="610" y="440" width="120" height="60" as="geometry"/>
                </mxCell>
                <mxCell id="25" value="&lt;font face=&quot;Georgia&quot;&gt;&lt;i&gt;SVM&lt;sub&gt;B&lt;span style=&quot;font-size: 8px&quot;&gt;0&lt;br&gt;&lt;/span&gt;&lt;/sub&gt;&lt;/i&gt;&lt;/font&gt;&lt;font face=&quot;Georgia&quot;&gt;&lt;i&gt;{B&lt;sub&gt;r&amp;nbsp;&lt;/sub&gt;vs B&lt;sub&gt;0&lt;/sub&gt;}&lt;/i&gt;&lt;/font&gt;&lt;i&gt;&lt;font face=&quot;Georgia&quot;&gt;&lt;br&gt;&lt;/font&gt;&lt;/i&gt;" style="rounded=1;whiteSpace=wrap;html=1;" parent="1" vertex="1">
                    <mxGeometry x="470" y="200" width="120" height="60" as="geometry"/>
                </mxCell>
                <mxCell id="27" value="" style="endArrow=none;dashed=1;html=1;dashPattern=1 3;strokeWidth=2;fontFamily=Georgia;fontSize=8;" parent="1" edge="1">
                    <mxGeometry width="50" height="50" relative="1" as="geometry">
                        <mxPoint x="600" y="350" as="sourcePoint"/>
                        <mxPoint x="600" y="310" as="targetPoint"/>
                    </mxGeometry>
                </mxCell>
                <mxCell id="43" style="edgeStyle=none;html=1;exitX=0.5;exitY=1;exitDx=0;exitDy=0;fontColor=default;" edge="1" parent="1" source="28">
                    <mxGeometry relative="1" as="geometry">
                        <mxPoint x="370" y="390" as="targetPoint"/>
                        <Array as="points">
                            <mxPoint x="440" y="370"/>
                            <mxPoint x="370" y="370"/>
                        </Array>
                    </mxGeometry>
                </mxCell>
                <mxCell id="44" style="edgeStyle=none;html=1;exitX=0.5;exitY=1;exitDx=0;exitDy=0;fontColor=default;" edge="1" parent="1" source="28">
                    <mxGeometry relative="1" as="geometry">
                        <mxPoint x="510" y="390" as="targetPoint"/>
                        <Array as="points">
                            <mxPoint x="440" y="370"/>
                            <mxPoint x="510" y="370"/>
                        </Array>
                    </mxGeometry>
                </mxCell>
                <mxCell id="28" value="&lt;font face=&quot;Georgia&quot;&gt;&lt;i&gt;SVM&lt;sub&gt;A&lt;span style=&quot;font-size: 8px&quot;&gt;00&lt;br&gt;&lt;/span&gt;&lt;/sub&gt;&lt;/i&gt;&lt;/font&gt;&lt;font face=&quot;Georgia&quot;&gt;&lt;i&gt;{A&lt;sub&gt;00&amp;nbsp;&lt;/sub&gt;vs A&lt;sub&gt;01&lt;/sub&gt;}&lt;/i&gt;&lt;br&gt;&lt;/font&gt;" style="rounded=1;whiteSpace=wrap;html=1;" vertex="1" parent="1">
                    <mxGeometry x="380" y="300" width="120" height="60" as="geometry"/>
                </mxCell>
                <mxCell id="47" style="edgeStyle=none;html=1;exitX=0.5;exitY=1;exitDx=0;exitDy=0;fontColor=default;" edge="1" parent="1" source="29">
                    <mxGeometry relative="1" as="geometry">
                        <mxPoint x="200" y="390" as="targetPoint"/>
                        <Array as="points">
                            <mxPoint x="250" y="370"/>
                            <mxPoint x="200" y="370"/>
                        </Array>
                    </mxGeometry>
                </mxCell>
                <mxCell id="29" value="&lt;font face=&quot;Georgia&quot;&gt;&lt;i&gt;SVM&lt;sub&gt;A2&lt;span style=&quot;font-size: 8px&quot;&gt;&lt;br&gt;&lt;/span&gt;&lt;/sub&gt;&lt;/i&gt;&lt;/font&gt;&lt;font face=&quot;Georgia&quot;&gt;&lt;i&gt;{A&lt;sub&gt;r &lt;/sub&gt;vs A&lt;span style=&quot;font-size: 10px&quot;&gt;2&lt;/span&gt;}&lt;/i&gt;&lt;br&gt;&lt;/font&gt;" style="rounded=1;whiteSpace=wrap;html=1;" vertex="1" parent="1">
                    <mxGeometry x="190" y="300" width="120" height="60" as="geometry"/>
                </mxCell>
                <mxCell id="33" value="&lt;font face=&quot;Georgia&quot;&gt;&lt;i&gt;SVM&lt;sub&gt;&lt;span style=&quot;font-size: 8px&quot;&gt;oj-1&lt;/span&gt;&lt;span style=&quot;font-size: 8px&quot;&gt;&lt;br&gt;&lt;/span&gt;&lt;/sub&gt;&lt;/i&gt;&lt;/font&gt;&lt;font face=&quot;Georgia&quot;&gt;&lt;i&gt;{A&lt;sub&gt;oj-1&amp;nbsp;&lt;/sub&gt;vs A&lt;sub&gt;oj&lt;/sub&gt;}&lt;/i&gt;&lt;/font&gt;&lt;i&gt;&lt;font face=&quot;Georgia&quot;&gt;&lt;br&gt;&lt;/font&gt;&lt;/i&gt;" style="rounded=1;whiteSpace=wrap;html=1;" vertex="1" parent="1">
                    <mxGeometry x="450" y="440" width="120" height="60" as="geometry"/>
                </mxCell>
                <mxCell id="39" value="&lt;font face=&quot;Georgia&quot;&gt;&lt;i&gt;SVM&lt;sub&gt;A&lt;span style=&quot;font-size: 8px&quot;&gt;0&lt;br&gt;&lt;/span&gt;&lt;/sub&gt;&lt;/i&gt;&lt;/font&gt;&lt;font face=&quot;Georgia&quot;&gt;&lt;i&gt;{A&lt;sub&gt;n&amp;nbsp;&lt;/sub&gt;vs A&lt;sub&gt;n-1&lt;/sub&gt;}&lt;/i&gt;&lt;/font&gt;&lt;i&gt;&lt;font face=&quot;Georgia&quot;&gt;&lt;br&gt;&lt;/font&gt;&lt;/i&gt;" style="rounded=1;whiteSpace=wrap;html=1;" vertex="1" parent="1">
                    <mxGeometry x="140" y="440" width="120" height="60" as="geometry"/>
                </mxCell>
                <mxCell id="40" value="" style="endArrow=none;dashed=1;html=1;dashPattern=1 3;strokeWidth=2;fontFamily=Georgia;fontSize=8;" edge="1" parent="1">
                    <mxGeometry width="50" height="50" relative="1" as="geometry">
                        <mxPoint x="199.84" y="414" as="sourcePoint"/>
                        <mxPoint x="199.84" y="394" as="targetPoint"/>
                    </mxGeometry>
                </mxCell>
                <mxCell id="42" value="&lt;font face=&quot;Georgia&quot;&gt;&lt;i&gt;SVM&lt;span style=&quot;font-size: 10px&quot;&gt;A&lt;/span&gt;&lt;sub&gt;&lt;font style=&quot;font-size: 8px&quot;&gt;0k-1&lt;/font&gt;&lt;span style=&quot;font-size: 8px&quot;&gt;&lt;br&gt;&lt;/span&gt;&lt;/sub&gt;&lt;/i&gt;&lt;/font&gt;&lt;font face=&quot;Georgia&quot;&gt;&lt;i&gt;{A&lt;sub&gt;ok-1&amp;nbsp;&lt;/sub&gt;vs A&lt;sub&gt;ok&lt;/sub&gt;}&lt;/i&gt;&lt;/font&gt;&lt;i&gt;&lt;font face=&quot;Georgia&quot;&gt;&lt;br&gt;&lt;/font&gt;&lt;/i&gt;" style="rounded=1;whiteSpace=wrap;html=1;" vertex="1" parent="1">
                    <mxGeometry x="310" y="440" width="120" height="60" as="geometry"/>
                </mxCell>
                <mxCell id="45" value="" style="endArrow=none;dashed=1;html=1;dashPattern=1 3;strokeWidth=2;fontFamily=Georgia;fontSize=8;" edge="1" parent="1">
                    <mxGeometry width="50" height="50" relative="1" as="geometry">
                        <mxPoint x="369.84" y="413" as="sourcePoint"/>
                        <mxPoint x="369.84" y="391" as="targetPoint"/>
                    </mxGeometry>
                </mxCell>
                <mxCell id="48" value="" style="endArrow=classic;html=1;fontColor=default;entryX=0.5;entryY=0;entryDx=0;entryDy=0;" edge="1" parent="1" target="39">
                    <mxGeometry width="50" height="50" relative="1" as="geometry">
                        <mxPoint x="200" y="420" as="sourcePoint"/>
                        <mxPoint x="260" y="550" as="targetPoint"/>
                    </mxGeometry>
                </mxCell>
                <mxCell id="49" value="" style="endArrow=classic;html=1;fontColor=default;entryX=0.5;entryY=0;entryDx=0;entryDy=0;" edge="1" parent="1">
                    <mxGeometry width="50" height="50" relative="1" as="geometry">
                        <mxPoint x="369.84000000000003" y="420.0000000000002" as="sourcePoint"/>
                        <mxPoint x="369.84000000000003" y="440.0000000000002" as="targetPoint"/>
                    </mxGeometry>
                </mxCell>
                <mxCell id="50" value="" style="endArrow=none;dashed=1;html=1;dashPattern=1 3;strokeWidth=2;fontFamily=Georgia;fontSize=8;" edge="1" parent="1">
                    <mxGeometry width="50" height="50" relative="1" as="geometry">
                        <mxPoint x="509.8399999999999" y="411.9999999999998" as="sourcePoint"/>
                        <mxPoint x="509.8399999999999" y="390" as="targetPoint"/>
                    </mxGeometry>
                </mxCell>
                <mxCell id="51" value="" style="endArrow=classic;html=1;fontColor=default;entryX=0.5;entryY=0;entryDx=0;entryDy=0;" edge="1" parent="1">
                    <mxGeometry width="50" height="50" relative="1" as="geometry">
                        <mxPoint x="509.84000000000015" y="420.0000000000002" as="sourcePoint"/>
                        <mxPoint x="509.84000000000015" y="440.0000000000002" as="targetPoint"/>
                    </mxGeometry>
                </mxCell>
                <mxCell id="54" value="" style="endArrow=none;dashed=1;html=1;strokeWidth=2;fontColor=default;fillColor=#a20025;strokeColor=#FF3333;" edge="1" parent="1">
                    <mxGeometry width="50" height="50" relative="1" as="geometry">
                        <mxPoint x="160" y="410" as="sourcePoint"/>
                        <mxPoint x="160" y="190" as="targetPoint"/>
                    </mxGeometry>
                </mxCell>
                <mxCell id="57" value="" style="endArrow=none;dashed=1;html=1;strokeWidth=2;fontColor=default;fillColor=#a20025;strokeColor=#FF3333;" edge="1" parent="1">
                    <mxGeometry width="50" height="50" relative="1" as="geometry">
                        <mxPoint x="160" y="190" as="sourcePoint"/>
                        <mxPoint x="420" y="190" as="targetPoint"/>
                    </mxGeometry>
                </mxCell>
                <mxCell id="58" value="" style="endArrow=none;dashed=1;html=1;strokeWidth=2;fontColor=default;fillColor=#a20025;strokeColor=#FF3333;" edge="1" parent="1">
                    <mxGeometry width="50" height="50" relative="1" as="geometry">
                        <mxPoint x="420" y="270" as="sourcePoint"/>
                        <mxPoint x="420" y="190" as="targetPoint"/>
                    </mxGeometry>
                </mxCell>
                <mxCell id="59" value="" style="endArrow=none;dashed=1;html=1;strokeWidth=2;fontColor=default;fillColor=#a20025;strokeColor=#FF3333;" edge="1" parent="1">
                    <mxGeometry width="50" height="50" relative="1" as="geometry">
                        <mxPoint x="520" y="270" as="sourcePoint"/>
                        <mxPoint x="420" y="270" as="targetPoint"/>
                    </mxGeometry>
                </mxCell>
                <mxCell id="60" value="" style="endArrow=none;dashed=1;html=1;strokeWidth=2;fontColor=default;fillColor=#a20025;strokeColor=#FF3333;" edge="1" parent="1">
                    <mxGeometry width="50" height="50" relative="1" as="geometry">
                        <mxPoint x="520" y="410" as="sourcePoint"/>
                        <mxPoint x="160" y="410" as="targetPoint"/>
                    </mxGeometry>
                </mxCell>
                <mxCell id="61" value="" style="endArrow=none;dashed=1;html=1;strokeWidth=2;fontColor=default;fillColor=#a20025;strokeColor=#FF3333;" edge="1" parent="1">
                    <mxGeometry width="50" height="50" relative="1" as="geometry">
                        <mxPoint x="520" y="410" as="sourcePoint"/>
                        <mxPoint x="520" y="270" as="targetPoint"/>
                    </mxGeometry>
                </mxCell>
            </root>
        </mxGraphModel>
    </diagram>
</mxfile>